<mxfile host="65bd71144e">
    <diagram id="OJ_yU08cRhhaUV5k9XLr" name="PÃ¡gina-1">
        <mxGraphModel dx="2165" dy="1044" grid="0" gridSize="12" guides="1" tooltips="1" connect="1" arrows="1" fold="1" page="1" pageScale="1" pageWidth="827" pageHeight="1169" math="0" shadow="0">
            <root>
                <mxCell id="0"/>
                <mxCell id="1" parent="0"/>
                <mxCell id="2" value="Calendario" style="swimlane;fontStyle=1;align=center;verticalAlign=top;childLayout=stackLayout;horizontal=1;startSize=26;horizontalStack=0;resizeParent=1;resizeParentMax=0;resizeLast=0;collapsible=1;marginBottom=0;rounded=1;" vertex="1" parent="1">
                    <mxGeometry x="-668" y="39" width="206" height="242" as="geometry"/>
                </mxCell>
                <mxCell id="3" value="-FechaYHora : Date()" style="text;align=left;verticalAlign=top;spacingLeft=4;spacingRight=4;overflow=hidden;rotatable=0;points=[[0,0.5],[1,0.5]];portConstraint=eastwest;fontStyle=0;rounded=1;" vertex="1" parent="2">
                    <mxGeometry y="26" width="206" height="26" as="geometry"/>
                </mxCell>
                <mxCell id="5" value="-disponibilidad : bool" style="text;strokeColor=none;fillColor=none;align=left;verticalAlign=top;spacingLeft=4;spacingRight=4;overflow=hidden;rotatable=0;points=[[0,0.5],[1,0.5]];portConstraint=eastwest;rounded=1;" vertex="1" parent="2">
                    <mxGeometry y="52" width="206" height="26" as="geometry"/>
                </mxCell>
                <mxCell id="6" value="-confirmacion: bool" style="text;strokeColor=none;fillColor=none;align=left;verticalAlign=top;spacingLeft=4;spacingRight=4;overflow=hidden;rotatable=0;points=[[0,0.5],[1,0.5]];portConstraint=eastwest;fontColor=#ffff;rounded=1;" vertex="1" parent="2">
                    <mxGeometry y="78" width="206" height="26" as="geometry"/>
                </mxCell>
                <mxCell id="8" value="" style="line;strokeWidth=4;fillColor=none;align=left;verticalAlign=middle;spacingTop=-1;spacingLeft=3;spacingRight=3;rotatable=0;labelPosition=right;points=[];portConstraint=eastwest;fontColor=#ffff;rounded=1;" vertex="1" parent="2">
                    <mxGeometry y="104" width="206" height="8" as="geometry"/>
                </mxCell>
                <mxCell id="9" value="+CargarFechaYHora()" style="text;strokeColor=none;fillColor=none;align=left;verticalAlign=top;spacingLeft=4;spacingRight=4;overflow=hidden;rotatable=0;points=[[0,0.5],[1,0.5]];portConstraint=eastwest;fontColor=#ffff;rounded=1;" vertex="1" parent="2">
                    <mxGeometry y="112" width="206" height="26" as="geometry"/>
                </mxCell>
                <mxCell id="10" value="+ MostrarFechaYHora()" style="text;strokeColor=none;fillColor=none;align=left;verticalAlign=top;spacingLeft=4;spacingRight=4;overflow=hidden;rotatable=0;points=[[0,0.5],[1,0.5]];portConstraint=eastwest;fontColor=#ffff;rounded=1;" vertex="1" parent="2">
                    <mxGeometry y="138" width="206" height="26" as="geometry"/>
                </mxCell>
                <mxCell id="12" value="+ HabilitarDiisponibilidad()" style="text;strokeColor=none;fillColor=none;align=left;verticalAlign=top;spacingLeft=4;spacingRight=4;overflow=hidden;rotatable=0;points=[[0,0.5],[1,0.5]];portConstraint=eastwest;fontColor=#ffff;rounded=1;" vertex="1" parent="2">
                    <mxGeometry y="164" width="206" height="26" as="geometry"/>
                </mxCell>
                <mxCell id="13" value="+ DesabilitarDisponibilidad()" style="text;strokeColor=none;fillColor=none;align=left;verticalAlign=top;spacingLeft=4;spacingRight=4;overflow=hidden;rotatable=0;points=[[0,0.5],[1,0.5]];portConstraint=eastwest;fontColor=#ffff;rounded=1;" vertex="1" parent="2">
                    <mxGeometry y="190" width="206" height="26" as="geometry"/>
                </mxCell>
                <mxCell id="11" value="+ ConfimarFechaYHora()" style="text;strokeColor=none;fillColor=none;align=left;verticalAlign=top;spacingLeft=4;spacingRight=4;overflow=hidden;rotatable=0;points=[[0,0.5],[1,0.5]];portConstraint=eastwest;fontColor=#ffff;rounded=1;" vertex="1" parent="2">
                    <mxGeometry y="216" width="206" height="26" as="geometry"/>
                </mxCell>
                <mxCell id="14" value="Formulario" style="swimlane;fontStyle=0;childLayout=stackLayout;horizontal=1;startSize=26;fillColor=none;horizontalStack=0;resizeParent=1;resizeParentMax=0;resizeLast=0;collapsible=1;marginBottom=0;rounded=1;fontColor=#ffff;strokeWidth=4;" vertex="1" parent="1">
                    <mxGeometry x="519" y="57" width="140" height="268" as="geometry"/>
                </mxCell>
                <mxCell id="15" value="-nombre : string" style="text;strokeColor=none;fillColor=none;align=left;verticalAlign=top;spacingLeft=4;spacingRight=4;overflow=hidden;rotatable=0;points=[[0,0.5],[1,0.5]];portConstraint=eastwest;rounded=1;fontColor=#ffff;" vertex="1" parent="14">
                    <mxGeometry y="26" width="140" height="26" as="geometry"/>
                </mxCell>
                <mxCell id="16" value="-apellido:string" style="text;strokeColor=none;fillColor=none;align=left;verticalAlign=top;spacingLeft=4;spacingRight=4;overflow=hidden;rotatable=0;points=[[0,0.5],[1,0.5]];portConstraint=eastwest;rounded=1;fontColor=#ffff;" vertex="1" parent="14">
                    <mxGeometry y="52" width="140" height="26" as="geometry"/>
                </mxCell>
                <mxCell id="17" value="-email:string" style="text;strokeColor=none;fillColor=none;align=left;verticalAlign=top;spacingLeft=4;spacingRight=4;overflow=hidden;rotatable=0;points=[[0,0.5],[1,0.5]];portConstraint=eastwest;rounded=1;fontColor=#ffff;" vertex="1" parent="14">
                    <mxGeometry y="78" width="140" height="26" as="geometry"/>
                </mxCell>
                <mxCell id="22" value="-telefono: int" style="text;strokeColor=none;fillColor=none;align=left;verticalAlign=top;spacingLeft=4;spacingRight=4;overflow=hidden;rotatable=0;points=[[0,0.5],[1,0.5]];portConstraint=eastwest;rounded=1;fontColor=#ffff;" vertex="1" parent="14">
                    <mxGeometry y="104" width="140" height="26" as="geometry"/>
                </mxCell>
                <mxCell id="25" value="-monto: int" style="text;strokeColor=none;fillColor=none;align=left;verticalAlign=top;spacingLeft=4;spacingRight=4;overflow=hidden;rotatable=0;points=[[0,0.5],[1,0.5]];portConstraint=eastwest;rounded=1;fontColor=#ffff;" vertex="1" parent="14">
                    <mxGeometry y="130" width="140" height="26" as="geometry"/>
                </mxCell>
                <mxCell id="23" value="-barberos: Barbero" style="text;strokeColor=none;fillColor=none;align=left;verticalAlign=top;spacingLeft=4;spacingRight=4;overflow=hidden;rotatable=0;points=[[0,0.5],[1,0.5]];portConstraint=eastwest;rounded=1;fontColor=#ffff;fontStyle=0;" vertex="1" parent="14">
                    <mxGeometry y="156" width="140" height="26" as="geometry"/>
                </mxCell>
                <mxCell id="24" value="-servicios: Servicios" style="text;strokeColor=none;fillColor=none;align=left;verticalAlign=top;spacingLeft=4;spacingRight=4;overflow=hidden;rotatable=0;points=[[0,0.5],[1,0.5]];portConstraint=eastwest;rounded=1;fontColor=#ffff;" vertex="1" parent="14">
                    <mxGeometry y="182" width="140" height="26" as="geometry"/>
                </mxCell>
                <mxCell id="27" value="" style="line;strokeWidth=3;fillColor=none;align=left;verticalAlign=middle;spacingTop=-1;spacingLeft=3;spacingRight=3;rotatable=0;labelPosition=right;points=[];portConstraint=eastwest;rounded=1;fontColor=#ffff;" vertex="1" parent="14">
                    <mxGeometry y="208" width="140" height="8" as="geometry"/>
                </mxCell>
                <mxCell id="28" value="+ CargarFormulario()" style="text;strokeColor=none;fillColor=none;align=left;verticalAlign=top;spacingLeft=4;spacingRight=4;overflow=hidden;rotatable=0;points=[[0,0.5],[1,0.5]];portConstraint=eastwest;rounded=1;fontColor=#ffff;" vertex="1" parent="14">
                    <mxGeometry y="216" width="140" height="26" as="geometry"/>
                </mxCell>
                <mxCell id="30" value="+ MostrarFormulario()" style="text;strokeColor=none;fillColor=none;align=left;verticalAlign=top;spacingLeft=4;spacingRight=4;overflow=hidden;rotatable=0;points=[[0,0.5],[1,0.5]];portConstraint=eastwest;rounded=1;fontColor=#ffff;" vertex="1" parent="14">
                    <mxGeometry y="242" width="140" height="26" as="geometry"/>
                </mxCell>
                <mxCell id="18" value="Servicios" style="swimlane;fontStyle=0;childLayout=stackLayout;horizontal=1;startSize=26;fillColor=none;horizontalStack=0;resizeParent=1;resizeParentMax=0;resizeLast=0;collapsible=1;marginBottom=0;rounded=1;fontColor=#ffff;strokeWidth=4;arcSize=0;" vertex="1" parent="1">
                    <mxGeometry x="344" y="648" width="140" height="195" as="geometry"/>
                </mxCell>
                <mxCell id="19" value="-img: jpg(etc)" style="text;strokeColor=none;fillColor=none;align=left;verticalAlign=top;spacingLeft=4;spacingRight=4;overflow=hidden;rotatable=0;points=[[0,0.5],[1,0.5]];portConstraint=eastwest;rounded=1;fontColor=#ffff;" vertex="1" parent="18">
                    <mxGeometry y="26" width="140" height="26" as="geometry"/>
                </mxCell>
                <mxCell id="20" value="-idServicios: int" style="text;strokeColor=none;fillColor=none;align=left;verticalAlign=top;spacingLeft=4;spacingRight=4;overflow=hidden;rotatable=0;points=[[0,0.5],[1,0.5]];portConstraint=eastwest;rounded=1;fontColor=#ffff;" vertex="1" parent="18">
                    <mxGeometry y="52" width="140" height="26" as="geometry"/>
                </mxCell>
                <mxCell id="21" value="-monto:int" style="text;strokeColor=none;fillColor=none;align=left;verticalAlign=top;spacingLeft=4;spacingRight=4;overflow=hidden;rotatable=0;points=[[0,0.5],[1,0.5]];portConstraint=eastwest;rounded=1;fontColor=#ffff;" vertex="1" parent="18">
                    <mxGeometry y="78" width="140" height="26" as="geometry"/>
                </mxCell>
                <mxCell id="43" value="" style="line;strokeWidth=3;fillColor=none;align=left;verticalAlign=middle;spacingTop=-1;spacingLeft=3;spacingRight=3;rotatable=0;labelPosition=right;points=[];portConstraint=eastwest;rounded=1;fontColor=#ffff;" vertex="1" parent="18">
                    <mxGeometry y="104" width="140" height="8" as="geometry"/>
                </mxCell>
                <mxCell id="45" value="+ CargarServicios()" style="text;strokeColor=none;fillColor=none;align=left;verticalAlign=top;spacingLeft=4;spacingRight=4;overflow=hidden;rotatable=0;points=[[0,0.5],[1,0.5]];portConstraint=eastwest;rounded=1;fontColor=#ffff;" vertex="1" parent="18">
                    <mxGeometry y="112" width="140" height="26" as="geometry"/>
                </mxCell>
                <mxCell id="44" value="+MostrarServicios()" style="text;strokeColor=none;fillColor=none;align=left;verticalAlign=top;spacingLeft=4;spacingRight=4;overflow=hidden;rotatable=0;points=[[0,0.5],[1,0.5]];portConstraint=eastwest;rounded=1;fontColor=#ffff;" vertex="1" parent="18">
                    <mxGeometry y="138" width="140" height="31" as="geometry"/>
                </mxCell>
                <mxCell id="58" value="+ ModificarServicios()" style="text;strokeColor=none;fillColor=none;align=left;verticalAlign=top;spacingLeft=4;spacingRight=4;overflow=hidden;rotatable=0;points=[[0,0.5],[1,0.5]];portConstraint=eastwest;rounded=1;fontColor=#ffff;" vertex="1" parent="18">
                    <mxGeometry y="169" width="140" height="26" as="geometry"/>
                </mxCell>
                <mxCell id="26" value="&lt;p style=&quot;margin: 0px ; margin-top: 4px ; text-align: center&quot;&gt;&lt;i&gt;&amp;lt;&amp;lt;Interface&amp;gt;&amp;gt;&lt;/i&gt;&lt;br&gt;&lt;b&gt;Turnos&lt;/b&gt;&lt;/p&gt;&lt;hr size=&quot;1&quot;&gt;&lt;p style=&quot;margin: 0px ; margin-left: 4px&quot;&gt;-canlendario: Calendario&lt;/p&gt;&lt;p style=&quot;margin: 0px ; margin-left: 4px&quot;&gt;-formulario: Formulario&lt;/p&gt;&lt;hr size=&quot;1&quot;&gt;&lt;p style=&quot;margin: 0px ; margin-left: 4px&quot;&gt;+formulario.CargarFormulario()&lt;br&gt;+calendario.MostrarFechaYHora()&lt;/p&gt;&lt;p style=&quot;margin: 0px ; margin-left: 4px&quot;&gt;+EnviarTurno()&lt;/p&gt;" style="verticalAlign=top;align=left;overflow=fill;fontSize=12;fontFamily=Helvetica;html=1;rounded=1;fontColor=#ffff;strokeWidth=4;" vertex="1" parent="1">
                    <mxGeometry x="-39" y="71" width="190" height="145" as="geometry"/>
                </mxCell>
                <mxCell id="39" value="1" style="endArrow=open;html=1;endSize=12;startArrow=diamondThin;startSize=14;startFill=1;edgeStyle=orthogonalEdgeStyle;align=left;verticalAlign=bottom;rounded=1;fontColor=#ffff;exitX=1;exitY=0.5;exitDx=0;exitDy=0;entryX=0;entryY=0.5;entryDx=0;entryDy=0;" edge="1" parent="1" source="26" target="23">
                    <mxGeometry x="-1" y="3" relative="1" as="geometry">
                        <mxPoint x="492" y="433" as="sourcePoint"/>
                        <mxPoint x="652" y="433" as="targetPoint"/>
                    </mxGeometry>
                </mxCell>
                <mxCell id="40" value="&lt;p style=&quot;margin: 0px ; margin-top: 4px ; text-align: center&quot;&gt;&lt;i&gt;&amp;lt;&amp;lt;Interface&amp;gt;&amp;gt;&lt;/i&gt;&lt;br&gt;&lt;b&gt;Administrador&lt;/b&gt;&lt;/p&gt;&lt;hr size=&quot;1&quot;&gt;&lt;p style=&quot;margin: 0px ; margin-left: 4px&quot;&gt;-calendario: Calendario&lt;br&gt;-formulario: Formulario&lt;/p&gt;&lt;p style=&quot;margin: 0px ; margin-left: 4px&quot;&gt;-servicios: Servicios&lt;/p&gt;&lt;p style=&quot;margin: 0px ; margin-left: 4px&quot;&gt;-barberos: Barberos&lt;/p&gt;&lt;hr size=&quot;1&quot;&gt;&lt;p style=&quot;margin: 0px ; margin-left: 4px&quot;&gt;+calendario.CargarFechaYHora()&lt;/p&gt;&lt;p style=&quot;margin: 0px ; margin-left: 4px&quot;&gt;+calendario.HabilitarDisponibilidad()&lt;/p&gt;&lt;p style=&quot;margin: 0px ; margin-left: 4px&quot;&gt;+calendario.DesabilitarDisponibilidad()&lt;/p&gt;&lt;p style=&quot;margin: 0px ; margin-left: 4px&quot;&gt;+ calendario.MostrarFechaYHora()&lt;/p&gt;&lt;p style=&quot;margin: 0px ; margin-left: 4px&quot;&gt;+formulario.MostrarFormulario()&lt;/p&gt;&lt;p style=&quot;margin: 0px ; margin-left: 4px&quot;&gt;+servicios.CargarServicos()&lt;/p&gt;&lt;p style=&quot;margin: 0px ; margin-left: 4px&quot;&gt;+servicios.EditarServicios()&lt;/p&gt;&lt;p style=&quot;margin: 0px ; margin-left: 4px&quot;&gt;+servicios.ModificarServicios()&lt;/p&gt;&lt;p style=&quot;margin: 0px ; margin-left: 4px&quot;&gt;+barberos.CargarBarberos()&lt;/p&gt;&lt;p style=&quot;margin: 0px ; margin-left: 4px&quot;&gt;+barberos.DarDeBaja()&lt;/p&gt;&lt;p style=&quot;margin: 0px ; margin-left: 4px&quot;&gt;+barberos.Modificar()&lt;/p&gt;" style="verticalAlign=top;align=left;overflow=fill;fontSize=12;fontFamily=Helvetica;html=1;rounded=1;fontColor=#ffff;strokeWidth=3;" vertex="1" parent="1">
                    <mxGeometry x="-323" y="559" width="220" height="311" as="geometry"/>
                </mxCell>
                <mxCell id="47" value="Barberos" style="swimlane;fontStyle=1;align=center;verticalAlign=top;childLayout=stackLayout;horizontal=1;startSize=26;horizontalStack=0;resizeParent=1;resizeParentMax=0;resizeLast=0;collapsible=1;marginBottom=0;rounded=1;fontColor=#ffff;strokeWidth=3;" vertex="1" parent="1">
                    <mxGeometry x="-701" y="437" width="160" height="216" as="geometry"/>
                </mxCell>
                <mxCell id="48" value="-nombre: string" style="text;strokeColor=none;fillColor=none;align=left;verticalAlign=top;spacingLeft=4;spacingRight=4;overflow=hidden;rotatable=0;points=[[0,0.5],[1,0.5]];portConstraint=eastwest;rounded=1;fontColor=#ffff;" vertex="1" parent="47">
                    <mxGeometry y="26" width="160" height="26" as="geometry"/>
                </mxCell>
                <mxCell id="51" value="-apellido : sting" style="text;strokeColor=none;fillColor=none;align=left;verticalAlign=top;spacingLeft=4;spacingRight=4;overflow=hidden;rotatable=0;points=[[0,0.5],[1,0.5]];portConstraint=eastwest;rounded=1;fontColor=#ffff;" vertex="1" parent="47">
                    <mxGeometry y="52" width="160" height="26" as="geometry"/>
                </mxCell>
                <mxCell id="52" value="-img: jpg(etc)" style="text;strokeColor=none;fillColor=none;align=left;verticalAlign=top;spacingLeft=4;spacingRight=4;overflow=hidden;rotatable=0;points=[[0,0.5],[1,0.5]];portConstraint=eastwest;rounded=1;fontColor=#ffff;" vertex="1" parent="47">
                    <mxGeometry y="78" width="160" height="26" as="geometry"/>
                </mxCell>
                <mxCell id="53" value="-estado:bool" style="text;strokeColor=none;fillColor=none;align=left;verticalAlign=top;spacingLeft=4;spacingRight=4;overflow=hidden;rotatable=0;points=[[0,0.5],[1,0.5]];portConstraint=eastwest;rounded=1;fontColor=#ffff;" vertex="1" parent="47">
                    <mxGeometry y="104" width="160" height="26" as="geometry"/>
                </mxCell>
                <mxCell id="49" value="" style="line;strokeWidth=1;fillColor=none;align=left;verticalAlign=middle;spacingTop=-1;spacingLeft=3;spacingRight=3;rotatable=0;labelPosition=right;points=[];portConstraint=eastwest;rounded=1;fontColor=#ffff;" vertex="1" parent="47">
                    <mxGeometry y="130" width="160" height="8" as="geometry"/>
                </mxCell>
                <mxCell id="50" value="-CargarBarberos()" style="text;strokeColor=none;fillColor=none;align=left;verticalAlign=top;spacingLeft=4;spacingRight=4;overflow=hidden;rotatable=0;points=[[0,0.5],[1,0.5]];portConstraint=eastwest;rounded=1;fontColor=#ffff;" vertex="1" parent="47">
                    <mxGeometry y="138" width="160" height="26" as="geometry"/>
                </mxCell>
                <mxCell id="56" value="+ DarDeBaja()" style="text;strokeColor=none;fillColor=none;align=left;verticalAlign=top;spacingLeft=4;spacingRight=4;overflow=hidden;rotatable=0;points=[[0,0.5],[1,0.5]];portConstraint=eastwest;rounded=1;fontColor=#ffff;" vertex="1" parent="47">
                    <mxGeometry y="164" width="160" height="26" as="geometry"/>
                </mxCell>
                <mxCell id="57" value="+ ModificarBarbero()" style="text;strokeColor=none;fillColor=none;align=left;verticalAlign=top;spacingLeft=4;spacingRight=4;overflow=hidden;rotatable=0;points=[[0,0.5],[1,0.5]];portConstraint=eastwest;rounded=1;fontColor=#ffff;" vertex="1" parent="47">
                    <mxGeometry y="190" width="160" height="26" as="geometry"/>
                </mxCell>
                <mxCell id="60" value="1" style="endArrow=open;html=1;endSize=12;startArrow=diamondThin;startSize=14;startFill=1;edgeStyle=orthogonalEdgeStyle;align=left;verticalAlign=bottom;rounded=1;fontColor=#ffff;entryX=1;entryY=0.5;entryDx=0;entryDy=0;" edge="1" parent="1" target="5">
                    <mxGeometry x="-0.3333" y="-32" relative="1" as="geometry">
                        <mxPoint x="-37" y="135" as="sourcePoint"/>
                        <mxPoint x="53" y="370" as="targetPoint"/>
                        <mxPoint as="offset"/>
                    </mxGeometry>
                </mxCell>
                <mxCell id="62" value="1" style="endArrow=open;html=1;endSize=12;startArrow=diamondThin;startSize=14;startFill=1;edgeStyle=orthogonalEdgeStyle;align=left;verticalAlign=bottom;rounded=1;fontColor=#ffff;entryX=0.391;entryY=-0.005;entryDx=0;entryDy=0;entryPerimeter=0;exitX=1.019;exitY=0.275;exitDx=0;exitDy=0;exitPerimeter=0;" edge="1" parent="1" source="40" target="18">
                    <mxGeometry x="-1" y="3" relative="1" as="geometry">
                        <mxPoint x="40" y="410" as="sourcePoint"/>
                        <mxPoint x="214" y="462" as="targetPoint"/>
                    </mxGeometry>
                </mxCell>
                <mxCell id="63" value="1" style="endArrow=open;html=1;endSize=12;startArrow=diamondThin;startSize=14;startFill=1;edgeStyle=orthogonalEdgeStyle;align=left;verticalAlign=bottom;rounded=1;fontColor=#ffff;entryX=0.622;entryY=-0.014;entryDx=0;entryDy=0;entryPerimeter=0;exitX=-0.005;exitY=0.299;exitDx=0;exitDy=0;exitPerimeter=0;" edge="1" parent="1" source="40" target="47">
                    <mxGeometry x="-1" y="3" relative="1" as="geometry">
                        <mxPoint x="-252" y="426" as="sourcePoint"/>
                        <mxPoint x="-331" y="416" as="targetPoint"/>
                    </mxGeometry>
                </mxCell>
                <mxCell id="64" value="1" style="endArrow=open;html=1;endSize=12;startArrow=diamondThin;startSize=14;startFill=1;edgeStyle=orthogonalEdgeStyle;align=left;verticalAlign=bottom;rounded=1;fontColor=#ffff;entryX=1;entryY=0.5;entryDx=0;entryDy=0;exitX=-0.019;exitY=0.153;exitDx=0;exitDy=0;exitPerimeter=0;" edge="1" parent="1" source="40" target="6">
                    <mxGeometry x="-1" y="-202" relative="1" as="geometry">
                        <mxPoint x="-345" y="202" as="sourcePoint"/>
                        <mxPoint x="-185" y="202" as="targetPoint"/>
                        <mxPoint x="-112" y="181" as="offset"/>
                    </mxGeometry>
                </mxCell>
                <mxCell id="65" value="1" style="endArrow=open;html=1;endSize=12;startArrow=diamondThin;startSize=14;startFill=1;edgeStyle=orthogonalEdgeStyle;align=left;verticalAlign=bottom;rounded=1;fontColor=#ffff;entryX=0.25;entryY=0;entryDx=0;entryDy=0;exitX=1.03;exitY=0.187;exitDx=0;exitDy=0;exitPerimeter=0;" edge="1" parent="1" source="40" target="14">
                    <mxGeometry x="-1" y="3" relative="1" as="geometry">
                        <mxPoint x="-3" y="323" as="sourcePoint"/>
                        <mxPoint x="157" y="323" as="targetPoint"/>
                    </mxGeometry>
                </mxCell>
                <mxCell id="67" value="EnviarDatosDelFormulario" style="html=1;verticalAlign=bottom;endArrow=block;rounded=1;fontColor=#ffff;exitX=0.053;exitY=0.883;exitDx=0;exitDy=0;exitPerimeter=0;entryX=0.451;entryY=0.005;entryDx=0;entryDy=0;entryPerimeter=0;" edge="1" parent="1" source="26" target="40">
                    <mxGeometry x="-0.025" width="80" relative="1" as="geometry">
                        <mxPoint x="-178" y="199" as="sourcePoint"/>
                        <mxPoint x="-116" y="268" as="targetPoint"/>
                        <Array as="points"/>
                        <mxPoint as="offset"/>
                    </mxGeometry>
                </mxCell>
                <mxCell id="70" value="EnviarActualizaciones del Calendario" style="html=1;verticalAlign=bottom;endArrow=block;rounded=1;fontColor=#ffff;entryX=0.75;entryY=1;entryDx=0;entryDy=0;" edge="1" parent="1" target="26">
                    <mxGeometry x="-0.15" y="13" width="80" relative="1" as="geometry">
                        <mxPoint x="-98" y="742" as="sourcePoint"/>
                        <mxPoint x="142" y="345" as="targetPoint"/>
                        <mxPoint as="offset"/>
                    </mxGeometry>
                </mxCell>
                <mxCell id="73" value="&lt;p style=&quot;margin: 0px ; margin-top: 4px ; text-align: center&quot;&gt;&lt;i&gt;&amp;lt;&amp;lt;Interface&amp;gt;&amp;gt;&lt;/i&gt;&lt;br&gt;&lt;/p&gt;&lt;p style=&quot;margin: 0px ; margin-top: 4px ; text-align: center&quot;&gt;&lt;i&gt;LoginAdministrador&lt;/i&gt;&lt;/p&gt;&lt;hr size=&quot;1&quot;&gt;&lt;p style=&quot;margin: 0px ; margin-left: 4px&quot;&gt;- email: string&lt;/p&gt;&lt;p style=&quot;margin: 0px ; margin-left: 4px&quot;&gt;- password: sting&lt;/p&gt;&lt;p style=&quot;margin: 0px ; margin-left: 4px&quot;&gt;-estado : bool&lt;/p&gt;&lt;hr size=&quot;1&quot;&gt;&lt;p style=&quot;margin: 0px ; margin-left: 4px&quot;&gt;+ CargatLogin()&lt;/p&gt;&lt;p style=&quot;margin: 0px ; margin-left: 4px&quot;&gt;+ValidarDatos()&lt;/p&gt;&lt;p style=&quot;margin: 0px ; margin-left: 4px&quot;&gt;+IngresarAlAdministrador()&lt;br&gt;&lt;br&gt;&lt;/p&gt;" style="verticalAlign=top;align=left;overflow=fill;fontSize=12;fontFamily=Helvetica;html=1;rounded=1;fontColor=#ffff;strokeWidth=3;" vertex="1" parent="1">
                    <mxGeometry x="77" y="916" width="190" height="221" as="geometry"/>
                </mxCell>
                <mxCell id="74" value="Ingresa Al Administrador" style="html=1;verticalAlign=bottom;endArrow=block;rounded=1;fontColor=#ffff;entryX=0.75;entryY=1;entryDx=0;entryDy=0;exitX=0.032;exitY=0.638;exitDx=0;exitDy=0;exitPerimeter=0;" edge="1" parent="1" source="73" target="40">
                    <mxGeometry width="80" relative="1" as="geometry">
                        <mxPoint x="-129" y="999" as="sourcePoint"/>
                        <mxPoint x="-49" y="999" as="targetPoint"/>
                    </mxGeometry>
                </mxCell>
            </root>
        </mxGraphModel>
    </diagram>
</mxfile>